HIERARCHY
ROOT Hips
{
	OFFSET 0.00000 0.00000 0.00000
	CHANNELS 6 Xposition Yposition Zposition Zrotation Yrotation Xrotation 
	JOINT LHipJoint
	{
		OFFSET 0 0 0
		CHANNELS 3 Zrotation Yrotation Xrotation
		JOINT LeftUpLeg
		{
			OFFSET 1.65674 -1.80282 0.62477
			CHANNELS 3 Zrotation Yrotation Xrotation
			JOINT LeftLeg
			{
				OFFSET 2.59720 -7.13576 0.00000
				CHANNELS 3 Zrotation Yrotation Xrotation
				JOINT LeftFoot
				{
					OFFSET 2.49236 -6.84770 0.00000
					CHANNELS 3 Zrotation Yrotation Xrotation
					JOINT LeftToeBase
					{
						OFFSET 0.19704 -0.54136 2.14581
						CHANNELS 3 Zrotation Yrotation Xrotation
						End Site
						{
							OFFSET 0.00000 -0.00000 1.11249
						}
					}
				}
			}
		}
	}
	JOINT RHipJoint
	{
		OFFSET 0 0 0
		CHANNELS 3 Zrotation Yrotation Xrotation
		JOINT RightUpLeg
		{
			OFFSET -1.61070 -1.80282 0.62476
			CHANNELS 3 Zrotation Yrotation Xrotation
			JOINT RightLeg
			{
				OFFSET -2.59502 -7.12977 0.00000
				CHANNELS 3 Zrotation Yrotation Xrotation
				JOINT RightFoot
				{
					OFFSET -2.46780 -6.78024 0.00000
					CHANNELS 3 Zrotation Yrotation Xrotation
					JOINT RightToeBase
					{
						OFFSET -0.23024 -0.63258 2.13368
						CHANNELS 3 Zrotation Yrotation Xrotation
						End Site
						{
							OFFSET -0.00000 -0.00000 1.11569
						}
					}
				}
			}
		}
	}
	JOINT LowerBack
	{
		OFFSET 0 0 0
		CHANNELS 3 Zrotation Yrotation Xrotation
		JOINT Spine
		{
			OFFSET 0.01961 2.05450 -0.14112
			CHANNELS 3 Zrotation Yrotation Xrotation
			JOINT Spine1
			{
				OFFSET 0.01021 2.06436 -0.05921
				CHANNELS 3 Zrotation Yrotation Xrotation
				JOINT Neck
				{
					OFFSET 0 0 0
					CHANNELS 3 Zrotation Yrotation Xrotation
					JOINT Neck1
					{
						OFFSET 0.00713 1.56711 0.14968
						CHANNELS 3 Zrotation Yrotation Xrotation
						JOINT Head
						{
							OFFSET 0.03429 1.56041 -0.10006
							CHANNELS 3 Zrotation Yrotation Xrotation
							End Site
							{
								OFFSET 0.01305 1.62560 -0.05265
							}
						}
					}
				}
				JOINT LeftShoulder
				{
					OFFSET 0 0 0
					CHANNELS 3 Zrotation Yrotation Xrotation
					JOINT LeftArm
					{
						OFFSET 3.54205 0.90436 -0.17364
						CHANNELS 3 Zrotation Yrotation Xrotation
						JOINT LeftForeArm
						{
							OFFSET 4.86513 -0.00000 -0.00000
							CHANNELS 3 Zrotation Yrotation Xrotation
							JOINT LeftHand
							{
								OFFSET 3.35554 -0.00000 0.00000
								CHANNELS 3 Zrotation Yrotation Xrotation
								JOINT LeftFingerBase
								{
									OFFSET 0 0 0
									CHANNELS 3 Zrotation Yrotation Xrotation
									JOINT LeftHandIndex1
									{
										OFFSET 0.66117 -0.00000 0.00000
										CHANNELS 3 Zrotation Yrotation Xrotation
										End Site
										{
											OFFSET 0.53306 -0.00000 0.00000
										}
									}
								}
								JOINT LThumb
								{
									OFFSET 0 0 0
									CHANNELS 3 Zrotation Yrotation Xrotation
									End Site
									{
										OFFSET 0.54120 -0.00000 0.54120
									}
								}
							}
						}
					}
				}
				JOINT RightShoulder
				{
					OFFSET 0 0 0
					CHANNELS 3 Zrotation Yrotation Xrotation
					JOINT RightArm
					{
						OFFSET -3.49802 0.75994 -0.32616
						CHANNELS 3 Zrotation Yrotation Xrotation
						JOINT RightForeArm
						{
							OFFSET -5.02649 -0.00000 0.00000
							CHANNELS 3 Zrotation Yrotation Xrotation
							JOINT RightHand
							{
								OFFSET -3.36431 -0.00000 0.00000
								CHANNELS 3 Zrotation Yrotation Xrotation
								JOINT RightFingerBase
								{
									OFFSET 0 0 0
									CHANNELS 3 Zrotation Yrotation Xrotation
									JOINT RightHandIndex1
									{
										OFFSET -0.73041 -0.00000 0.00000
										CHANNELS 3 Zrotation Yrotation Xrotation
										End Site
										{
											OFFSET -0.58887 -0.00000 0.00000
										}
									}
								}
								JOINT RThumb
								{
									OFFSET 0 0 0
									CHANNELS 3 Zrotation Yrotation Xrotation
									End Site
									{
										OFFSET -0.59786 -0.00000 0.59786
									}
								}
							}
						}
					}
				}
			}
		}
	}
}
MOTION
Frames: 12
Frame Time: .0083333
9.4455 17.861 -0.5 0 0 0 0 0 0 -21 0 0 0 0 0 0 0 0 0 0 0 0 0 0 21 0 0 0 0 0 0 0 0 0 0 0 0 0 0 0 0 0 0 0 0 0 0 -16 0 0 21 0 0 11 0 0 0 -8 0 0 0 0 0 0 0 0 0 0 0 0 0 0 0 0 0 0 0 0 8 0 0 0 0 0 0 0 0 0 0 0 0 0 0 0 0 0
9.4455 17.8610 -0.5000 -0.9193 -4.1156 -3.4650 0.0000 0.0000 0.0000 -22.2471 -3.3445 0.2308 1.2452 7.0754 19.9388 0.4574 9.3991 -19.4700 0.0005 -0.1372 -0.3770 0.0000 0.0000 0.0000 24.2943 7.1057 1.9494 -0.7921 -5.6812 15.8620 -0.4035 -4.3904 -14.4232 -0.0448 -1.3654 3.7548 1.6029 -1.1766 5.1053 0.8809 -1.4996 3.0215 0.0773 -0.7387 0.2262 -3.9547 -5.3435 -12.7279 3.2039 -6.7175 3.3408 1.2830 -3.2454 3.6399 -0.0000 0.0000 0.0000 -90.5438 3.5930 29.0103 21.2190 -32.0831 -6.1659 -0.0000 0.0000 -25.2377 30.7756 18.6389 10.7766 -7.1250 0.0000 -0.0000 2.6675 51.3945 0.4204 -0.0000 0.0000 0.0000 86.7592 -2.6710 31.7967 -22.6582 33.7130 -6.9477 0.0000 -0.0000 -16.1297 -28.0195 14.9198 -7.8015 7.1250 -0.0000 -0.0000 -0.3025 -13.1847 -0.2256
9.4469 17.8538 -0.5182 -0.9276 -4.1650 -3.2886 0.0000 0.0000 0.0000 -22.2333 -3.3250 0.0858 1.2151 6.9925 19.6932 0.4124 9.5976 -19.1812 0.0019 -0.2814 -0.7731 0.0000 0.0000 0.0000 24.3035 7.4679 1.4630 -0.8575 -5.9052 16.5095 -0.4433 -4.3099 -14.9011 -0.0483 -1.4177 3.8988 1.5785 -1.1004 5.3127 0.9101 -1.3942 3.0296 0.1199 -0.6870 0.1216 -4.1385 -5.0479 -12.3732 3.5031 -6.3179 2.8148 1.4582 -3.0420 3.3925 -0.0000 0.0000 0.0000 -90.4702 3.2902 30.0120 22.1385 -33.1332 -6.6614 -0.0000 0.0000 -25.3582 30.2988 18.2727 10.3820 -7.1250 0.0000 -0.0000 2.2302 50.8946 0.3240 -0.0000 0.0000 0.0000 86.6252 -2.5662 32.5976 -23.4368 34.5630 -7.3846 0.0000 -0.0000 -16.3693 -28.2891 14.6975 -7.7757 7.1250 -0.0000 -0.0000 -0.5053 -13.3927 -0.3745
9.4515 17.8423 -0.5260 -0.6609 -4.1004 -3.1654 0.0000 0.0000 0.0000 -22.5652 -3.3312 0.2029 1.1507 6.8111 19.1568 0.3554 9.8294 -18.7874 0.0036 -0.3858 -1.0601 0.0000 0.0000 0.0000 23.9584 7.6033 0.9909 -0.9238 -6.1233 17.1426 -0.4821 -4.1336 -15.2840 -0.0558 -1.5238 4.1914 1.3542 -1.0742 5.3006 0.7914 -1.3727 3.2026 0.1203 -0.6767 0.3085 -4.0688 -4.8599 -12.6119 3.5443 -6.0698 2.7321 1.4742 -2.9142 3.3981 0.0000 -0.0000 0.0000 -90.2816 2.9044 30.9166 23.1387 -34.2401 -7.2162 -0.0000 0.0000 -25.7636 29.5568 17.0998 9.4666 -7.1250 0.0000 -0.0000 1.6444 49.4493 0.1805 0.0000 -0.0000 0.0000 86.7162 -2.0795 33.3179 -24.0580 35.2256 -7.7400 0.0000 -0.0000 -16.6530 -28.5618 15.3800 -8.2152 7.1250 -0.0000 -0.0000 -0.6198 -12.5908 -0.4698
9.4570 17.8445 -0.5267 -0.0553 -3.9244 -3.1882 0.0000 0.0000 0.0000 -23.2700 -3.4607 0.4633 1.0966 6.6545 18.6957 0.3369 9.9137 -18.6672 0.0007 -0.1726 -0.4742 0.0000 0.0000 0.0000 23.2296 7.5623 0.6768 -0.9881 -6.3268 17.7356 -0.5233 -3.9083 -15.6532 -0.0667 -1.6663 4.5842 0.8039 -1.0834 5.4778 0.5644 -1.4082 3.3307 0.1995 -0.6997 0.3484 -3.8790 -4.6601 -12.9325 3.4655 -5.8179 2.8093 1.4270 -2.7868 3.4655 0.0000 -0.0000 0.0000 -90.0097 2.7728 32.0544 24.2582 -35.4361 -7.8557 -0.0000 0.0000 -26.3663 29.1362 17.5949 9.5645 -7.1250 0.0000 -0.0000 1.1538 49.9303 0.1403 0.0000 -0.0000 0.0000 86.7213 -1.8467 34.2168 -24.6983 35.8940 -8.1123 0.0000 -0.0000 -17.0063 -28.6395 16.4178 -8.7745 7.1250 -0.0000 -0.0000 -0.5618 -11.4220 -0.4394
9.4603 17.8475 -0.5365 0.4420 -3.7204 -3.1564 0.0000 0.0000 0.0000 -23.8262 -3.6426 0.5576 1.0595 6.5445 18.3729 0.3365 9.9153 -18.6639 0.0011 0.2127 0.5843 0.0000 0.0000 0.0000 22.6365 7.5531 0.3543 -1.0372 -6.4773 18.1756 -0.5442 -3.9079 -15.9109 -0.0651 -1.6466 4.5301 0.2954 -1.0939 5.9422 0.4213 -1.4411 3.2225 0.3505 -0.7219 -0.0122 -4.0572 -4.3948 -12.5058 3.8091 -5.4674 2.4776 1.6090 -2.6062 3.2746 -0.0000 0.0000 0.0000 -89.8542 2.9149 33.0786 25.3611 -36.5708 -8.5041 -0.0000 0.0000 -26.9132 28.9660 17.1497 9.2701 -7.1250 0.0000 -0.0000 1.0497 49.4052 0.1140 -0.0000 0.0000 0.0000 86.5972 -2.0783 35.0933 -25.4830 36.6936 -8.5769 0.0000 -0.0000 -17.3196 -28.7787 16.2068 -8.7158 7.1250 -0.0000 -0.0000 -0.6766 -11.6344 -0.5263
9.4644 17.8493 -0.5551 0.7344 -3.5714 -2.9579 0.0000 0.0000 0.0000 -24.1497 -3.8655 0.3009 1.0612 6.5496 18.3876 0.3341 9.9103 -18.6320 0.0004 0.1270 0.3489 0.0000 0.0000 0.0000 22.2521 7.5932 -0.0863 -1.0617 -6.5511 18.3920 -0.5403 -4.0255 -15.9394 -0.0542 -1.5026 4.1328 0.0160 -1.0832 6.2307 0.3343 -1.4405 3.2032 0.4242 -0.7239 -0.1874 -4.1194 -4.1455 -12.3305 3.9360 -5.1321 2.1410 1.6905 -2.4382 3.1169 -0.0000 -0.0000 0.0000 -89.7087 2.6024 33.9639 26.2806 -37.4844 -9.0579 -0.0000 0.0000 -27.4058 28.8166 16.2650 8.7593 -7.1250 0.0000 -0.0000 1.0259 48.3945 0.0859 -0.0000 -0.0000 0.0000 86.5478 -2.0031 35.7435 -26.2977 37.5011 -9.0683 0.0000 -0.0000 -17.3578 -28.9720 14.9397 -8.1234 7.1250 -0.0000 -0.0000 -0.9393 -13.0203 -0.7036
9.4666 17.8582 -0.5849 0.4405 -3.5992 -2.5087 0.0000 0.0000 0.0000 -23.7689 -4.0180 -0.3836 1.0885 6.6305 18.6252 0.3322 9.8299 -18.5236 0.0005 -0.1406 -0.3863 0.0000 0.0000 0.0000 22.5446 8.0310 -0.6463 -1.0757 -6.5928 18.5145 -0.5186 -4.2969 -15.8555 -0.0487 -1.4239 3.9160 0.3905 -1.0210 6.3554 0.3590 -1.3363 3.2120 0.2356 -0.6679 -0.2561 -3.6380 -3.9628 -12.6708 3.3806 -4.9152 2.1191 1.4293 -2.3442 3.1259 0.0000 0.0000 0.0000 -89.3114 2.1035 35.1705 27.2673 -38.4329 -9.6648 -0.0000 0.0000 -28.0528 28.1024 16.6153 8.6817 -7.1250 0.0000 -0.0000 0.2763 48.6695 0.0250 0.0000 0.0000 0.0000 86.6214 -1.6549 36.2538 -27.0414 38.2187 -9.5248 0.0000 -0.0000 -17.1981 -28.9422 14.5511 -7.9098 7.1250 -0.0000 -0.0000 -0.9591 -13.4604 -0.7096
9.4642 17.8591 -0.6213 -0.1511 -3.6158 -1.9626 0.0000 0.0000 0.0000 -23.0073 -4.1954 -1.2579 1.1225 6.7300 18.9179 0.3625 9.5527 -18.5757 0.0027 0.3380 0.9287 0.0000 0.0000 0.0000 23.1905 8.6787 -1.2686 -1.0953 -6.6507 18.6845 -0.4951 -4.7080 -15.8522 -0.0404 -1.2972 3.5668 1.0256 -0.9587 6.5306 0.4570 -1.2140 3.1599 -0.0239 -0.6013 -0.4177 -3.4410 -3.8058 -12.7376 3.2713 -4.7223 1.8510 1.3712 -2.2507 3.0274 0.0000 -0.0000 0.0000 -88.8940 1.8750 36.2761 28.5373 -39.6062 -10.4645 -0.0000 0.0000 -28.5401 27.2377 17.1428 8.6276 -7.1250 0.0000 -0.0000 -0.6574 49.1116 -0.0667 0.0000 -0.0000 0.0000 86.6420 -1.3725 36.9451 -27.8144 38.9448 -10.0068 0.0000 -0.0000 -17.4251 -28.5669 16.0408 -8.5559 7.1250 -0.0000 -0.0000 -0.5541 -11.8535 -0.4285
9.4617 17.8553 -0.6483 -0.1740 -3.4873 -1.6120 0.0000 0.0000 0.0000 -22.9030 -4.4851 -1.9086 1.1599 6.8372 19.2340 0.4057 9.2786 -18.7822 0.0254 1.0294 2.8296 0.0000 0.0000 0.0000 23.1912 9.0229 -1.7136 -1.1105 -6.6952 18.8153 -0.4917 -4.9425 -15.9799 -0.0290 -1.0989 3.0211 1.0658 -0.9523 6.5961 0.4160 -1.2045 3.3454 -0.0900 -0.5947 -0.2645 -3.5969 -3.5316 -12.7042 3.7132 -4.3439 1.1416 1.5739 -2.0492 2.7828 -0.0000 0.0000 0.0000 -88.6125 1.4293 37.0750 29.8614 -40.7743 -11.3190 -0.0000 0.0000 -28.6806 27.2118 17.3627 8.7237 -7.1250 0.0000 -0.0000 -0.7211 49.3490 -0.0773 -0.0000 0.0000 0.0000 86.5314 -0.8349 37.8381 -28.5978 39.6607 -10.5030 0.0000 -0.0000 -17.7464 -28.3303 16.3123 -8.6107 7.1250 -0.0000 -0.0000 -0.3687 -11.5893 -0.2871
9.4676 17.8477 -0.6700 0.1275 -3.3862 -1.3565 0.0000 0.0000 0.0000 -23.2239 -4.6921 -2.4295 1.1999 6.9501 19.5675 0.4169 9.2019 -18.8299 0.0276 1.0733 2.9504 0.0000 0.0000 0.0000 22.7734 9.0680 -2.1316 -1.1167 -6.7132 18.8684 -0.4891 -5.0033 -15.9924 -0.0250 -1.0207 2.8057 0.9264 -0.9661 6.5755 0.2120 -1.2353 3.6663 -0.2231 -0.6082 0.0753 -2.9723 -3.2006 -13.3581 3.2800 -3.9554 0.9838 1.3385 -1.8626 2.8035 -0.0000 0.0000 0.0000 -88.1634 0.7918 37.9517 31.1324 -41.8444 -12.1581 -0.0000 0.0000 -28.6858 27.6705 16.5842 8.5119 -7.1250 0.0000 -0.0000 -0.1417 48.5660 -0.0125 -0.0000 0.0000 0.0000 86.5697 -0.1052 38.5995 -29.3263 40.3089 -10.9712 0.0000 -0.0000 -17.7153 -27.9700 16.6278 -8.6405 7.1250 -0.0000 -0.0000 -0.0975 -11.2974 -0.0765
9.4753 17.8493 -0.6912 0.0952 -3.3385 -1.1204 0.0000 0.0000 0.0000 -23.1879 -4.7069 -2.8925 1.2312 7.0368 19.8244 0.4098 9.1924 -18.7417 0.0052 0.4649 1.2775 0.0000 0.0000 0.0000 22.7157 9.0474 -2.5236 -1.1139 -6.7051 18.8446 -0.4712 -5.1805 -15.9023 -0.0286 -1.0922 3.0026 1.0706 -0.9810 6.8103 0.1137 -1.2456 3.8191 -0.4016 -0.6098 0.0978 -2.2308 -2.9400 -13.7933 2.5889 -3.6816 0.9609 0.9931 -1.7451 2.8281 -0.0000 -0.0000 0.0000 -87.6475 0.5673 38.9235 32.4892 -42.9337 -13.0728 -0.0000 0.0000 -28.6841 28.3200 15.0245 7.9527 -7.1250 0.0000 -0.0000 0.7046 46.9351 0.0337 -0.0000 -0.0000 0.0000 86.5847 0.3547 39.3240 -29.9200 40.8247 -11.3573 0.0000 -0.0000 -17.6006 -27.8573 17.1919 -8.8787 7.1250 -0.0000 -0.0000 0.0365 -10.6923 0.0291
